<?xml version="1.0" encoding="UTF-8" standalone="no"?>
<svg
   xmlns:dc="http://purl.org/dc/elements/1.1/"
   xmlns:cc="http://creativecommons.org/ns#"
   xmlns:rdf="http://www.w3.org/1999/02/22-rdf-syntax-ns#"
   xmlns:svg="http://www.w3.org/2000/svg"
   xmlns="http://www.w3.org/2000/svg"
   xmlns:sodipodi="http://sodipodi.sourceforge.net/DTD/sodipodi-0.dtd"
   xmlns:inkscape="http://www.inkscape.org/namespaces/inkscape"
   id="Calque_1"
   data-name="Calque 1"
   viewBox="0 0 167 167"
   version="1.1"
   sodipodi:docname="logo-p-e.net-rond.svg"
   width="167"
   height="167"
   inkscape:version="0.92.3 (2405546, 2018-03-11)">
  <metadata
     id="metadata36">
    <rdf:RDF>
      <cc:Work
         rdf:about="">
        <dc:format>image/svg+xml</dc:format>
        <dc:type
           rdf:resource="http://purl.org/dc/dcmitype/StillImage" />
        <dc:title>logo-p-e.net-rond</dc:title>
      </cc:Work>
    </rdf:RDF>
  </metadata>
  <sodipodi:namedview
     pagecolor="#ffffff"
     bordercolor="#666666"
     borderopacity="1"
     objecttolerance="10"
     gridtolerance="10"
     guidetolerance="10"
     inkscape:pageopacity="0"
     inkscape:pageshadow="2"
     inkscape:window-width="1920"
     inkscape:window-height="1018"
     id="namedview34"
     showgrid="false"
     inkscape:zoom="1.1567493"
     inkscape:cx="102.205"
     inkscape:cy="102.01"
     inkscape:window-x="1920"
     inkscape:window-y="34"
     inkscape:window-maximized="1"
     inkscape:current-layer="Calque_1" />
  <defs
     id="defs4">
    <style
       id="style2">.cls-1{fill:#2365ab;}.cls-2{fill:#e63d1e;}.cls-3{fill:#8dbe22;}.cls-4{fill:#5da5db;}.cls-5{fill:#f3960a;}.cls-6{fill:#fff;}.cls-7{fill:none;}</style>
  </defs>
  <title
     id="title6">logo-p-e.net-rond</title>
  <g
     id="g891"
     transform="matrix(1.0005992,0,0,1.0005992,0,-0.10005992)">
    <path
       style="fill:#2365ab"
       inkscape:connector-curvature="0"
       id="path8"
       d="m 83.459999,0.100001 a 83.45,83.45 0 1 0 83.440001,83.44 83.45,83.45 0 0 0 -83.440001,-83.44 z"
       class="cls-1" />
    <rect
       style="fill:#e63d1e"
       id="rect10"
       height="4.21"
       width="21.870001"
       y="123.84"
       x="39.980003"
       class="cls-2" />
    <rect
       style="fill:#8dbe22"
       id="rect12"
       height="4.21"
       width="21.870001"
       y="123.84"
       x="61.839996"
       class="cls-3" />
    <rect
       style="fill:#5da5db"
       id="rect14"
       height="4.21"
       width="21.870001"
       y="123.84"
       x="83.610001"
       class="cls-4" />
    <rect
       style="fill:#f3960a"
       id="rect16"
       height="4.21"
       width="21.870001"
       y="123.84"
       x="105.48"
       class="cls-5" />
    <path
       style="fill:#ffffff"
       inkscape:connector-curvature="0"
       id="path18"
       d="m 47.009999,99.700001 c -4.32,0 -7.05,3.999999 -7.05,7.389999 0,3.1 2,4.56 4.76,4.56 4.14,0 6.79,-4 6.79,-7.39 0,-2.47 -1.33,-4.559999 -4.5,-4.559999 z"
       class="cls-6" />
    <path
       style="fill:#ffffff"
       inkscape:connector-curvature="0"
       id="path20"
       d="m 71.849999,71.880001 q 4.44,-5.73 4.44,-15 0,-9 -4.44,-14.7 a 13.87,13.87 0 0 0 -6,-4 21.55,21.55 0 0 0 -7.49,-1.4 24.6,24.6 0 0 0 -13.18,3.75 q -6.07,3.75 -6.08,14 v 36.61 h 5 a 4.89,4.89 0 0 0 3.56,-1.47 4.83,4.83 0 0 0 1.48,-3.53 v -14.51 a 11.06,11.06 0 0 0 4.74,4.56 15.21,15.21 0 0 0 6.52,1.32 13.93,13.93 0 0 0 11.45,-5.63 z m -20.45,-6.18 q -2.22,-2.79 -2.22,-8.38 0,-6 2.07,-8.82 a 7.24,7.24 0 0 1 6.22,-3.09 7.38,7.38 0 0 1 6.38,3.09 q 2.22,3.09 2.22,8.82 0,5.3 -2.22,8.38 a 7.09,7.09 0 0 1 -6.08,3.09 7.37,7.37 0 0 1 -6.37,-3.09 z"
       class="cls-6" />
    <path
       style="fill:#ffffff"
       inkscape:connector-curvature="0"
       id="path22"
       d="m 77.809999,86.810001 a 13.88,13.88 0 0 0 -7.74,-2.31 14.37,14.37 0 0 0 -7.5,2.51 q -3.41,2.31 -3.4,9.14 V 111.81 h 6.69 V 94.740001 a 4.32,4.32 0 0 1 1.34,-3.52 4.69,4.69 0 0 1 3.06,-1.1 4.93,4.93 0 0 1 3.11,1.1 4.25,4.25 0 0 1 1.38,3.52 V 108.39 a 3.38,3.38 0 0 0 0.91,2.46 3.09,3.09 0 0 0 2.34,1 h 3.35 V 96.150001 q 0,-7.03 -3.54,-9.34 z"
       class="cls-6" />
    <path
       style="fill:#ffffff"
       inkscape:connector-curvature="0"
       id="path24"
       d="m 88.829999,54.510001 h -6.88 q -3.71,0 -3.71,4.13 v 4.42 h 10.59 z"
       class="cls-6" />
    <path
       style="fill:#ffffff"
       inkscape:connector-curvature="0"
       id="path26"
       d="m 97.009999,85.530001 a 10.43,10.43 0 0 0 -8.51,3.71 q -3,3.62 -3,10 0,6.729999 3.06,10.339999 a 10.42,10.42 0 0 0 8.51,3.72 11.77,11.77 0 0 0 7.460001,-2.31 11,11 0 0 0 4,-6.43 h -4.78 a 2.73,2.73 0 0 0 -1.76,0.5 2.13,2.13 0 0 0 -0.72,0.81 l -0.53,0.55 a 1.2,1.2 0 0 1 -0.53,0.35 5.16,5.16 0 0 1 -2.770001,0.7 4.4,4.4 0 0 1 -3.72,-1.6 7.1,7.1 0 0 1 -1.44,-4.62 H 108.82 a 1.89,1.89 0 0 0 0.09,-0.7 v -1.109999 q 0,-6.63 -3.05,-10.34 -3.05,-3.71 -8.850001,-3.57 z m -4.73,11.24 a 5.85,5.85 0 0 1 1.44,-4 4.52,4.52 0 0 1 3.44,-1.41 4.47,4.47 0 0 1 3.530001,1.41 6.73,6.73 0 0 1 1.35,4 z"
       class="cls-6" />
    <path
       style="fill:#ffffff"
       inkscape:connector-curvature="0"
       id="path28"
       d="m 120.88,86.860001 a 3.39,3.39 0 0 0 -1,-2.41 3,3 0 0 0 -2.2,-1 h -3.4 V 107.82 q 0,4.62 3.68,4.92 a 46.59,46.59 0 0 0 6.84,0.1 v -5.21 h -2 c -1.27,0 -1.91,-0.56 -1.91,-1.7 v -9.719999 h 0.67 c 0.89,0 4.52,-0.32 5.16,-0.95 a 3.33,3.33 0 0 0 1,-2.46 v -1.41 h -6.84 z"
       class="cls-6" />
    <path
       style="fill:#ffffff"
       inkscape:connector-curvature="0"
       id="path30"
       d="m 123.09,43.700001 q -4.89,-5.28 -13.77,-5.29 -8.43,0 -13.170001,5.44 -4.59,5.28 -4.59,14.68 0,9.84 4.73,15.13 4.730001,5.29 13.180001,5.43 a 18.9,18.9 0 0 0 11.54,-3.38 16,16 0 0 0 6.22,-9.39 h -7.4 a 4.43,4.43 0 0 0 -2.74,0.73 3.18,3.18 0 0 0 -1.11,1.17 l -0.82,0.81 a 2,2 0 0 1 -0.81,0.52 8.49,8.49 0 0 1 -4.29,1 7,7 0 0 1 -5.77,-2.35 q -2.08,-2.19 -2.22,-6.75 h 25.6 a 2.5,2.5 0 0 0 0.15,-1 v -1.62 q 0,-9.69 -4.73,-15.13 z m -21,11.16 a 8.32,8.32 0 0 1 2.22,-5.87 7.23,7.23 0 0 1 5.32,-2.06 7.14,7.14 0 0 1 5.48,2.06 q 1.77,1.9 2.07,5.87 z"
       class="cls-6" />
    <path
       class="cls-1"
       d="m 83.459999,0.100001 a 83.45,83.45 0 1 0 83.440001,83.44 83.45,83.45 0 0 0 -83.440001,-83.44 z"
       id="path843"
       inkscape:connector-curvature="0"
       style="fill:#2365ab" />
    <rect
       class="cls-2"
       x="39.980003"
       y="123.84"
       width="21.870001"
       height="4.21"
       id="rect845"
       style="fill:#e63d1e" />
    <rect
       class="cls-3"
       x="61.839996"
       y="123.84"
       width="21.870001"
       height="4.21"
       id="rect847"
       style="fill:#8dbe22" />
    <rect
       class="cls-4"
       x="83.610001"
       y="123.84"
       width="21.870001"
       height="4.21"
       id="rect849"
       style="fill:#5da5db" />
    <rect
       class="cls-5"
       x="105.48"
       y="123.84"
       width="21.870001"
       height="4.21"
       id="rect851"
       style="fill:#f3960a" />
    <path
       class="cls-6"
       d="m 47.009999,99.700001 c -4.32,0 -7.05,3.999999 -7.05,7.389999 0,3.1 2,4.56 4.76,4.56 4.14,0 6.79,-4 6.79,-7.39 0,-2.47 -1.33,-4.559999 -4.5,-4.559999 z"
       id="path853"
       inkscape:connector-curvature="0"
       style="fill:#ffffff" />
    <path
       class="cls-6"
       d="m 71.849999,71.880001 q 4.44,-5.73 4.44,-15 0,-9 -4.44,-14.7 a 13.87,13.87 0 0 0 -6,-4 21.55,21.55 0 0 0 -7.49,-1.4 24.6,24.6 0 0 0 -13.18,3.75 q -6.07,3.75 -6.08,14 v 36.61 h 5 a 4.89,4.89 0 0 0 3.56,-1.47 4.83,4.83 0 0 0 1.48,-3.53 v -14.51 a 11.06,11.06 0 0 0 4.74,4.56 15.21,15.21 0 0 0 6.52,1.32 13.93,13.93 0 0 0 11.45,-5.63 z m -20.45,-6.18 q -2.22,-2.79 -2.22,-8.38 0,-6 2.07,-8.82 a 7.24,7.24 0 0 1 6.22,-3.09 7.38,7.38 0 0 1 6.38,3.09 q 2.22,3.09 2.22,8.82 0,5.3 -2.22,8.38 a 7.09,7.09 0 0 1 -6.08,3.09 7.37,7.37 0 0 1 -6.37,-3.09 z"
       id="path855"
       inkscape:connector-curvature="0"
       style="fill:#ffffff" />
    <path
       class="cls-6"
       d="m 77.809999,86.810001 a 13.88,13.88 0 0 0 -7.74,-2.31 14.37,14.37 0 0 0 -7.5,2.51 q -3.41,2.31 -3.4,9.14 V 111.81 h 6.69 V 94.740001 a 4.32,4.32 0 0 1 1.34,-3.52 4.69,4.69 0 0 1 3.06,-1.1 4.93,4.93 0 0 1 3.11,1.1 4.25,4.25 0 0 1 1.38,3.52 V 108.39 a 3.38,3.38 0 0 0 0.91,2.46 3.09,3.09 0 0 0 2.34,1 h 3.35 V 96.150001 q 0,-7.03 -3.54,-9.34 z"
       id="path857"
       inkscape:connector-curvature="0"
       style="fill:#ffffff" />
    <path
       class="cls-6"
       d="m 88.829999,54.510001 h -6.88 q -3.71,0 -3.71,4.13 v 4.42 h 10.59 z"
       id="path859"
       inkscape:connector-curvature="0"
       style="fill:#ffffff" />
    <path
       class="cls-6"
       d="m 97.009999,85.530001 a 10.43,10.43 0 0 0 -8.51,3.71 q -3,3.62 -3,10 0,6.729999 3.06,10.339999 a 10.42,10.42 0 0 0 8.51,3.72 11.77,11.77 0 0 0 7.460001,-2.31 11,11 0 0 0 4,-6.43 h -4.78 a 2.73,2.73 0 0 0 -1.76,0.5 2.13,2.13 0 0 0 -0.72,0.81 l -0.53,0.55 a 1.2,1.2 0 0 1 -0.53,0.35 5.16,5.16 0 0 1 -2.770001,0.7 4.4,4.4 0 0 1 -3.72,-1.6 7.1,7.1 0 0 1 -1.44,-4.62 H 108.82 a 1.89,1.89 0 0 0 0.09,-0.7 v -1.109999 q 0,-6.63 -3.05,-10.34 -3.05,-3.71 -8.850001,-3.57 z m -4.73,11.24 a 5.85,5.85 0 0 1 1.44,-4 4.52,4.52 0 0 1 3.44,-1.41 4.47,4.47 0 0 1 3.530001,1.41 6.73,6.73 0 0 1 1.35,4 z"
       id="path861"
       inkscape:connector-curvature="0"
       style="fill:#ffffff" />
    <path
       class="cls-6"
       d="m 120.88,86.860001 a 3.39,3.39 0 0 0 -1,-2.41 3,3 0 0 0 -2.2,-1 h -3.4 V 107.82 q 0,4.62 3.68,4.92 a 46.59,46.59 0 0 0 6.84,0.1 v -5.21 h -2 c -1.27,0 -1.91,-0.56 -1.91,-1.7 v -9.719999 h 0.67 c 0.89,0 4.52,-0.32 5.16,-0.95 a 3.33,3.33 0 0 0 1,-2.46 v -1.41 h -6.84 z"
       id="path863"
       inkscape:connector-curvature="0"
       style="fill:#ffffff" />
    <path
       class="cls-6"
       d="m 123.09,43.700001 q -4.89,-5.28 -13.77,-5.29 -8.43,0 -13.170001,5.44 -4.59,5.28 -4.59,14.68 0,9.84 4.73,15.13 4.730001,5.29 13.180001,5.43 a 18.9,18.9 0 0 0 11.54,-3.38 16,16 0 0 0 6.22,-9.39 h -7.4 a 4.43,4.43 0 0 0 -2.74,0.73 3.18,3.18 0 0 0 -1.11,1.17 l -0.82,0.81 a 2,2 0 0 1 -0.81,0.52 8.49,8.49 0 0 1 -4.29,1 7,7 0 0 1 -5.77,-2.35 q -2.08,-2.19 -2.22,-6.75 h 25.6 a 2.5,2.5 0 0 0 0.15,-1 v -1.62 q 0,-9.69 -4.73,-15.13 z m -21,11.16 a 8.32,8.32 0 0 1 2.22,-5.87 7.23,7.23 0 0 1 5.32,-2.06 7.14,7.14 0 0 1 5.48,2.06 q 1.77,1.9 2.07,5.87 z"
       id="path865"
       inkscape:connector-curvature="0"
       style="fill:#ffffff" />
  </g>
</svg>
